<mxfile host="app.diagrams.net" modified="2023-08-17T10:02:48.294Z" agent="Mozilla/5.0 (Windows NT 10.0; Win64; x64) AppleWebKit/537.36 (KHTML, like Gecko) Chrome/115.0.0.0 Safari/537.36" etag="kGi6hBjOWvKLLR9knjel" version="21.6.8" type="device">
  <diagram name="Page-1" id="X-LTMt35qCPR2BVJf_0y">
    <mxGraphModel dx="572" dy="514" grid="1" gridSize="10" guides="1" tooltips="1" connect="1" arrows="1" fold="1" page="1" pageScale="1" pageWidth="850" pageHeight="1100" math="0" shadow="0">
      <root>
        <mxCell id="0" />
        <mxCell id="1" parent="0" />
        <mxCell id="OYIjNWepA15Jy3c-F24k-1" value="USER" style="rounded=0;whiteSpace=wrap;html=1;" vertex="1" parent="1">
          <mxGeometry x="40" y="280" width="110" height="40" as="geometry" />
        </mxCell>
        <mxCell id="OYIjNWepA15Jy3c-F24k-2" value="CONTACT" style="rounded=0;whiteSpace=wrap;html=1;" vertex="1" parent="1">
          <mxGeometry x="370" y="280" width="110" height="40" as="geometry" />
        </mxCell>
        <mxCell id="OYIjNWepA15Jy3c-F24k-4" value="has" style="rhombus;whiteSpace=wrap;html=1;" vertex="1" parent="1">
          <mxGeometry x="230" y="280" width="60" height="40" as="geometry" />
        </mxCell>
        <mxCell id="OYIjNWepA15Jy3c-F24k-5" value="&lt;u&gt;id&lt;/u&gt;" style="ellipse;whiteSpace=wrap;html=1;" vertex="1" parent="1">
          <mxGeometry x="10" y="220" width="60" height="20" as="geometry" />
        </mxCell>
        <mxCell id="OYIjNWepA15Jy3c-F24k-6" value="name" style="ellipse;whiteSpace=wrap;html=1;" vertex="1" parent="1">
          <mxGeometry x="70" y="200" width="70" height="20" as="geometry" />
        </mxCell>
        <mxCell id="OYIjNWepA15Jy3c-F24k-7" value="email" style="ellipse;whiteSpace=wrap;html=1;" vertex="1" parent="1">
          <mxGeometry x="140" y="190" width="60" height="20" as="geometry" />
        </mxCell>
        <mxCell id="OYIjNWepA15Jy3c-F24k-8" value="password" style="ellipse;whiteSpace=wrap;html=1;" vertex="1" parent="1">
          <mxGeometry x="180" y="220" width="60" height="20" as="geometry" />
        </mxCell>
        <mxCell id="OYIjNWepA15Jy3c-F24k-9" value="image" style="ellipse;whiteSpace=wrap;html=1;" vertex="1" parent="1">
          <mxGeometry y="390" width="60" height="20" as="geometry" />
        </mxCell>
        <mxCell id="OYIjNWepA15Jy3c-F24k-10" value="about" style="ellipse;whiteSpace=wrap;html=1;" vertex="1" parent="1">
          <mxGeometry x="65" y="400" width="60" height="20" as="geometry" />
        </mxCell>
        <mxCell id="OYIjNWepA15Jy3c-F24k-11" value="enabled" style="ellipse;whiteSpace=wrap;html=1;" vertex="1" parent="1">
          <mxGeometry x="140" y="410" width="60" height="20" as="geometry" />
        </mxCell>
        <mxCell id="OYIjNWepA15Jy3c-F24k-12" value="role" style="ellipse;whiteSpace=wrap;html=1;" vertex="1" parent="1">
          <mxGeometry x="185" y="380" width="60" height="20" as="geometry" />
        </mxCell>
        <mxCell id="OYIjNWepA15Jy3c-F24k-14" value="" style="endArrow=none;html=1;rounded=0;entryX=0.333;entryY=1;entryDx=0;entryDy=0;entryPerimeter=0;exitX=0;exitY=1;exitDx=0;exitDy=0;" edge="1" parent="1" source="OYIjNWepA15Jy3c-F24k-8" target="OYIjNWepA15Jy3c-F24k-7">
          <mxGeometry width="50" height="50" relative="1" as="geometry">
            <mxPoint x="230" y="260" as="sourcePoint" />
            <mxPoint x="280" y="210" as="targetPoint" />
            <Array as="points">
              <mxPoint x="100" y="280" />
            </Array>
          </mxGeometry>
        </mxCell>
        <mxCell id="OYIjNWepA15Jy3c-F24k-15" value="" style="endArrow=none;html=1;rounded=0;entryX=0.75;entryY=1.1;entryDx=0;entryDy=0;entryPerimeter=0;exitX=0.371;exitY=0.9;exitDx=0;exitDy=0;exitPerimeter=0;" edge="1" parent="1" source="OYIjNWepA15Jy3c-F24k-6" target="OYIjNWepA15Jy3c-F24k-5">
          <mxGeometry width="50" height="50" relative="1" as="geometry">
            <mxPoint x="240" y="270" as="sourcePoint" />
            <mxPoint x="170" y="220" as="targetPoint" />
            <Array as="points">
              <mxPoint x="100" y="280" />
            </Array>
          </mxGeometry>
        </mxCell>
        <mxCell id="OYIjNWepA15Jy3c-F24k-16" value="" style="endArrow=none;html=1;rounded=0;entryX=0.65;entryY=-0.15;entryDx=0;entryDy=0;entryPerimeter=0;exitX=0.5;exitY=0;exitDx=0;exitDy=0;" edge="1" parent="1" source="OYIjNWepA15Jy3c-F24k-10" target="OYIjNWepA15Jy3c-F24k-9">
          <mxGeometry width="50" height="50" relative="1" as="geometry">
            <mxPoint x="230" y="300" as="sourcePoint" />
            <mxPoint x="160" y="250" as="targetPoint" />
            <Array as="points">
              <mxPoint x="100" y="320" />
            </Array>
          </mxGeometry>
        </mxCell>
        <mxCell id="OYIjNWepA15Jy3c-F24k-17" value="" style="endArrow=none;html=1;rounded=0;entryX=0.5;entryY=0;entryDx=0;entryDy=0;exitX=0.367;exitY=-0.05;exitDx=0;exitDy=0;exitPerimeter=0;" edge="1" parent="1" source="OYIjNWepA15Jy3c-F24k-12" target="OYIjNWepA15Jy3c-F24k-11">
          <mxGeometry width="50" height="50" relative="1" as="geometry">
            <mxPoint x="116" y="410" as="sourcePoint" />
            <mxPoint x="60" y="397" as="targetPoint" />
            <Array as="points">
              <mxPoint x="100" y="320" />
            </Array>
          </mxGeometry>
        </mxCell>
        <mxCell id="OYIjNWepA15Jy3c-F24k-18" value="&lt;u&gt;cid&lt;br&gt;&lt;/u&gt;" style="ellipse;whiteSpace=wrap;html=1;" vertex="1" parent="1">
          <mxGeometry x="280" y="220" width="60" height="20" as="geometry" />
        </mxCell>
        <mxCell id="OYIjNWepA15Jy3c-F24k-19" value="Name" style="ellipse;whiteSpace=wrap;html=1;" vertex="1" parent="1">
          <mxGeometry x="310" y="190" width="60" height="20" as="geometry" />
        </mxCell>
        <mxCell id="OYIjNWepA15Jy3c-F24k-20" value="nickName" style="ellipse;whiteSpace=wrap;html=1;" vertex="1" parent="1">
          <mxGeometry x="370" y="170" width="60" height="20" as="geometry" />
        </mxCell>
        <mxCell id="OYIjNWepA15Jy3c-F24k-21" value="work" style="ellipse;whiteSpace=wrap;html=1;" vertex="1" parent="1">
          <mxGeometry x="430" y="180" width="60" height="20" as="geometry" />
        </mxCell>
        <mxCell id="OYIjNWepA15Jy3c-F24k-23" value="email" style="ellipse;whiteSpace=wrap;html=1;" vertex="1" parent="1">
          <mxGeometry x="480" y="200" width="60" height="20" as="geometry" />
        </mxCell>
        <mxCell id="OYIjNWepA15Jy3c-F24k-24" value="image" style="ellipse;whiteSpace=wrap;html=1;" vertex="1" parent="1">
          <mxGeometry x="520" y="230" width="60" height="20" as="geometry" />
        </mxCell>
        <mxCell id="OYIjNWepA15Jy3c-F24k-25" value="phone" style="ellipse;whiteSpace=wrap;html=1;" vertex="1" parent="1">
          <mxGeometry x="540" y="270" width="60" height="20" as="geometry" />
        </mxCell>
        <mxCell id="OYIjNWepA15Jy3c-F24k-26" value="description" style="ellipse;whiteSpace=wrap;html=1;" vertex="1" parent="1">
          <mxGeometry x="530" y="310" width="70" height="20" as="geometry" />
        </mxCell>
        <mxCell id="OYIjNWepA15Jy3c-F24k-27" value="" style="endArrow=none;html=1;rounded=0;exitX=0.5;exitY=0;exitDx=0;exitDy=0;" edge="1" parent="1" source="OYIjNWepA15Jy3c-F24k-2">
          <mxGeometry width="50" height="50" relative="1" as="geometry">
            <mxPoint x="280" y="290" as="sourcePoint" />
            <mxPoint x="330" y="240" as="targetPoint" />
          </mxGeometry>
        </mxCell>
        <mxCell id="OYIjNWepA15Jy3c-F24k-28" value="" style="endArrow=none;html=1;rounded=0;exitX=0.5;exitY=0;exitDx=0;exitDy=0;entryX=0.667;entryY=1;entryDx=0;entryDy=0;entryPerimeter=0;" edge="1" parent="1" source="OYIjNWepA15Jy3c-F24k-2" target="OYIjNWepA15Jy3c-F24k-19">
          <mxGeometry width="50" height="50" relative="1" as="geometry">
            <mxPoint x="408" y="290" as="sourcePoint" />
            <mxPoint x="340" y="250" as="targetPoint" />
          </mxGeometry>
        </mxCell>
        <mxCell id="OYIjNWepA15Jy3c-F24k-29" value="" style="endArrow=none;html=1;rounded=0;entryX=0.5;entryY=1;entryDx=0;entryDy=0;exitX=0.5;exitY=0;exitDx=0;exitDy=0;" edge="1" parent="1" source="OYIjNWepA15Jy3c-F24k-2" target="OYIjNWepA15Jy3c-F24k-20">
          <mxGeometry width="50" height="50" relative="1" as="geometry">
            <mxPoint x="400" y="280" as="sourcePoint" />
            <mxPoint x="360" y="220" as="targetPoint" />
          </mxGeometry>
        </mxCell>
        <mxCell id="OYIjNWepA15Jy3c-F24k-30" value="" style="endArrow=none;html=1;rounded=0;entryX=0.322;entryY=0.984;entryDx=0;entryDy=0;entryPerimeter=0;exitX=0.5;exitY=0;exitDx=0;exitDy=0;" edge="1" parent="1" source="OYIjNWepA15Jy3c-F24k-2" target="OYIjNWepA15Jy3c-F24k-21">
          <mxGeometry width="50" height="50" relative="1" as="geometry">
            <mxPoint x="400" y="280" as="sourcePoint" />
            <mxPoint x="410" y="200" as="targetPoint" />
          </mxGeometry>
        </mxCell>
        <mxCell id="OYIjNWepA15Jy3c-F24k-31" value="" style="endArrow=none;html=1;rounded=0;entryX=0.322;entryY=0.984;entryDx=0;entryDy=0;entryPerimeter=0;exitX=0.5;exitY=0;exitDx=0;exitDy=0;" edge="1" parent="1" source="OYIjNWepA15Jy3c-F24k-2">
          <mxGeometry width="50" height="50" relative="1" as="geometry">
            <mxPoint x="450" y="300" as="sourcePoint" />
            <mxPoint x="499" y="220" as="targetPoint" />
          </mxGeometry>
        </mxCell>
        <mxCell id="OYIjNWepA15Jy3c-F24k-32" value="" style="endArrow=none;html=1;rounded=0;entryX=0;entryY=1;entryDx=0;entryDy=0;" edge="1" parent="1" target="OYIjNWepA15Jy3c-F24k-24">
          <mxGeometry width="50" height="50" relative="1" as="geometry">
            <mxPoint x="425" y="280" as="sourcePoint" />
            <mxPoint x="509" y="230" as="targetPoint" />
          </mxGeometry>
        </mxCell>
        <mxCell id="OYIjNWepA15Jy3c-F24k-33" value="" style="endArrow=none;html=1;rounded=0;entryX=0;entryY=0.5;entryDx=0;entryDy=0;exitX=1;exitY=0.5;exitDx=0;exitDy=0;" edge="1" parent="1" source="OYIjNWepA15Jy3c-F24k-2" target="OYIjNWepA15Jy3c-F24k-25">
          <mxGeometry width="50" height="50" relative="1" as="geometry">
            <mxPoint x="490" y="300" as="sourcePoint" />
            <mxPoint x="539" y="257" as="targetPoint" />
          </mxGeometry>
        </mxCell>
        <mxCell id="OYIjNWepA15Jy3c-F24k-35" value="" style="endArrow=none;html=1;rounded=0;entryX=0;entryY=0.5;entryDx=0;entryDy=0;exitX=1;exitY=0.5;exitDx=0;exitDy=0;" edge="1" parent="1" source="OYIjNWepA15Jy3c-F24k-2" target="OYIjNWepA15Jy3c-F24k-26">
          <mxGeometry width="50" height="50" relative="1" as="geometry">
            <mxPoint x="490" y="310" as="sourcePoint" />
            <mxPoint x="550" y="290" as="targetPoint" />
          </mxGeometry>
        </mxCell>
        <mxCell id="OYIjNWepA15Jy3c-F24k-36" value="" style="endArrow=none;html=1;rounded=0;exitX=0;exitY=0.5;exitDx=0;exitDy=0;" edge="1" parent="1" source="OYIjNWepA15Jy3c-F24k-2" target="OYIjNWepA15Jy3c-F24k-4">
          <mxGeometry width="50" height="50" relative="1" as="geometry">
            <mxPoint x="435" y="290" as="sourcePoint" />
            <mxPoint x="340" y="250" as="targetPoint" />
          </mxGeometry>
        </mxCell>
        <mxCell id="OYIjNWepA15Jy3c-F24k-37" value="" style="endArrow=none;html=1;rounded=0;exitX=0;exitY=0.5;exitDx=0;exitDy=0;" edge="1" parent="1">
          <mxGeometry width="50" height="50" relative="1" as="geometry">
            <mxPoint x="230" y="299.5" as="sourcePoint" />
            <mxPoint x="150" y="299.5" as="targetPoint" />
          </mxGeometry>
        </mxCell>
      </root>
    </mxGraphModel>
  </diagram>
</mxfile>
